<svg width="20" height="20" viewBox="0 0 20 20" fill="none" xmlns="http://www.w3.org/2000/svg">
<circle cx="10" cy="10" r="10" fill="#490085"/>
<path d="M5 16V12.6667C5 12.3 5.1224 11.9861 5.36719 11.725C5.61198 11.4639 5.90625 11.3333 6.25 11.3333H13.75C14.0938 11.3333 14.388 11.4639 14.6328 11.725C14.8776 11.9861 15 12.3 15 12.6667V16H5ZM8.125 10.6667C7.26042 10.6667 6.52344 10.3417 5.91406 9.69167C5.30469 9.04167 5 8.25556 5 7.33333C5 6.41111 5.30469 5.625 5.91406 4.975C6.52344 4.325 7.26042 4 8.125 4H11.875C12.7396 4 13.4766 4.325 14.0859 4.975C14.6953 5.625 15 6.41111 15 7.33333C15 8.25556 14.6953 9.04167 14.0859 9.69167C13.4766 10.3417 12.7396 10.6667 11.875 10.6667H8.125ZM6.25 14.6667H13.75V12.6667H6.25V14.6667ZM8.125 9.33333H11.875C12.3958 9.33333 12.8385 9.13889 13.2031 8.75C13.5677 8.36111 13.75 7.88889 13.75 7.33333C13.75 6.77778 13.5677 6.30556 13.2031 5.91667C12.8385 5.52778 12.3958 5.33333 11.875 5.33333H8.125C7.60417 5.33333 7.16146 5.52778 6.79688 5.91667C6.43229 6.30556 6.25 6.77778 6.25 7.33333C6.25 7.88889 6.43229 8.36111 6.79688 8.75C7.16146 9.13889 7.60417 9.33333 8.125 9.33333ZM8.125 8C8.30208 8 8.45052 7.93611 8.57031 7.80833C8.6901 7.68056 8.75 7.52222 8.75 7.33333C8.75 7.14444 8.6901 6.98611 8.57031 6.85833C8.45052 6.73056 8.30208 6.66667 8.125 6.66667C7.94792 6.66667 7.79948 6.73056 7.67969 6.85833C7.5599 6.98611 7.5 7.14444 7.5 7.33333C7.5 7.52222 7.5599 7.68056 7.67969 7.80833C7.79948 7.93611 7.94792 8 8.125 8ZM11.875 8C12.0521 8 12.2005 7.93611 12.3203 7.80833C12.4401 7.68056 12.5 7.52222 12.5 7.33333C12.5 7.14444 12.4401 6.98611 12.3203 6.85833C12.2005 6.73056 12.0521 6.66667 11.875 6.66667C11.6979 6.66667 11.5495 6.73056 11.4297 6.85833C11.3099 6.98611 11.25 7.14444 11.25 7.33333C11.25 7.52222 11.3099 7.68056 11.4297 7.80833C11.5495 7.93611 11.6979 8 11.875 8Z" fill="white"/>
</svg>
