<svg width="8" height="8" viewBox="0 0 8 8" fill="none" xmlns="http://www.w3.org/2000/svg">
<g clip-path="url(#clip0_245_2860)">
<path d="M2.18 1.66667C2.2 1.96333 2.25 2.25333 2.33 2.53L1.93 2.93C1.79333 2.53 1.70667 2.10667 1.67667 1.66667H2.18ZM5.46667 5.67333C5.75 5.75333 6.04 5.80333 6.33333 5.82333V6.32C5.89333 6.29 5.47 6.20333 5.06667 6.07L5.46667 5.67333ZM2.5 1H1.33333C1.15 1 1 1.15 1 1.33333C1 4.46333 3.53667 7 6.66667 7C6.85 7 7 6.85 7 6.66667V5.50333C7 5.32 6.85 5.17 6.66667 5.17C6.25333 5.17 5.85 5.10333 5.47667 4.98C5.44333 4.96667 5.40667 4.96333 5.37333 4.96333C5.28667 4.96333 5.20333 4.99667 5.13667 5.06L4.40333 5.79333C3.46 5.31 2.68667 4.54 2.20667 3.59667L2.94 2.86333C3.03333 2.77 3.06 2.64 3.02333 2.52333C2.9 2.15 2.83333 1.75 2.83333 1.33333C2.83333 1.15 2.68333 1 2.5 1Z" fill="black"/>
</g>
<defs>
<clipPath id="clip0_245_2860">
<rect width="8" height="8" fill="white"/>
</clipPath>
</defs>
</svg>
