<svg width="32" height="32" viewBox="0 0 32 32" fill="none" xmlns="http://www.w3.org/2000/svg">
<circle cx="16" cy="16" r="16" fill="#490085"/>
<path d="M15.3333 12.667L14.9999 13.0003H13.3333V13.667H13.6666V18.667C13.6666 18.8411 13.7304 19.0185 13.856 19.1442C13.9817 19.2699 14.1592 19.3337 14.3333 19.3337H17.6666C17.8407 19.3337 18.0181 19.2699 18.1438 19.1442C18.2695 19.0185 18.3333 18.8411 18.3333 18.667V13.667H18.6666V13.0003H16.9999L16.6666 12.667H15.3333ZM14.3333 13.667H17.6666V18.667H14.3333V13.667ZM14.9999 14.3337V18.0003H15.6666V14.3337H14.9999ZM16.3333 14.3337V18.0003H16.9999V14.3337H16.3333Z" fill="white"/>
</svg>
