<svg width="20" height="20" viewBox="0 0 20 20" fill="none" xmlns="http://www.w3.org/2000/svg">
<circle cx="10" cy="10" r="10" fill="#490085"/>
<path d="M5.33333 14.6663H6.26667L12.0167 8.91634L11.0833 7.98301L5.33333 13.733V14.6663ZM14.8667 7.94967L12.0333 5.14967L12.9667 4.21634C13.2222 3.96079 13.5362 3.83301 13.9087 3.83301C14.2807 3.83301 14.5944 3.96079 14.85 4.21634L15.7833 5.14967C16.0389 5.40523 16.1722 5.71367 16.1833 6.07501C16.1944 6.4359 16.0722 6.74412 15.8167 6.99967L14.8667 7.94967ZM13.9 8.93301L6.83333 15.9997H4V13.1663L11.0667 6.09967L13.9 8.93301ZM11.55 8.44967L11.0833 7.98301L12.0167 8.91634L11.55 8.44967Z" fill="white"/>
</svg>
