<svg width="14" height="18" viewBox="0 0 14 18" fill="none" xmlns="http://www.w3.org/2000/svg">
<path d="M7 9.8208C7.48125 9.8208 7.89337 9.6444 8.23637 9.2916C8.57879 8.9394 8.75 8.5158 8.75 8.0208C8.75 7.5258 8.57879 7.1022 8.23637 6.75C7.89337 6.3972 7.48125 6.2208 7 6.2208C6.51875 6.2208 6.10692 6.3972 5.7645 6.75C5.4215 7.1022 5.25 7.5258 5.25 8.0208C5.25 8.5158 5.4215 8.9394 5.7645 9.2916C6.10692 9.6444 6.51875 9.8208 7 9.8208ZM7 15.615C8.77917 13.935 10.099 12.4086 10.9594 11.0358C11.8198 9.6636 12.25 8.445 12.25 7.38C12.25 5.745 11.7431 4.4061 10.7292 3.3633C9.716 2.3211 8.47292 1.8 7 1.8C5.52708 1.8 4.28371 2.3211 3.26988 3.3633C2.25663 4.4061 1.75 5.745 1.75 7.38C1.75 8.445 2.18021 9.6636 3.04062 11.0358C3.90104 12.4086 5.22083 13.935 7 15.615ZM7 18C4.65208 15.945 2.89858 14.0361 1.7395 12.2733C0.579833 10.5111 0 8.88 0 7.38C0 5.13 0.703792 3.3375 2.11138 2.0025C3.51838 0.6675 5.14792 0 7 0C8.85208 0 10.4816 0.6675 11.8886 2.0025C13.2962 3.3375 14 5.13 14 7.38C14 8.88 13.4205 10.5111 12.2614 12.2733C11.1017 14.0361 9.34792 15.945 7 18Z" fill="#490085"/>
</svg>
