<svg width="32" height="32" viewBox="0 0 32 32" fill="none" xmlns="http://www.w3.org/2000/svg">
<circle cx="16" cy="16" r="16" fill="#490085"/>
<path d="M14.3334 19.3337V19.0003C14.1501 19.0003 13.9931 18.935 13.8626 18.8045C13.732 18.6739 13.6667 18.517 13.6667 18.3337V14.667C13.6667 14.4837 13.732 14.3267 13.8626 14.1962C13.9931 14.0656 14.1501 14.0003 14.3334 14.0003H15.0001V13.0003C15.0001 12.9059 15.032 12.8267 15.0959 12.7628C15.1598 12.6989 15.239 12.667 15.3334 12.667H16.6667C16.7612 12.667 16.8404 12.6989 16.9042 12.7628C16.9681 12.8267 17.0001 12.9059 17.0001 13.0003V14.0003H17.6667C17.8501 14.0003 18.007 14.0656 18.1376 14.1962C18.2681 14.3267 18.3334 14.4837 18.3334 14.667V18.3337C18.3334 18.517 18.2681 18.6739 18.1376 18.8045C18.007 18.935 17.8501 19.0003 17.6667 19.0003V19.3337H17.0001V19.0003H15.0001V19.3337H14.3334ZM15.6667 14.0003H16.3334V13.3337H15.6667V14.0003ZM16.0001 16.0003C16.2945 16.0003 16.582 15.9628 16.8626 15.8878C17.1431 15.8128 17.4112 15.7003 17.6667 15.5503V14.667H14.3334V15.5503C14.589 15.7003 14.857 15.8128 15.1376 15.8878C15.4181 15.9628 15.7056 16.0003 16.0001 16.0003ZM15.6667 17.0003V16.6503C15.4334 16.6225 15.2056 16.5809 14.9834 16.5253C14.7612 16.4698 14.5445 16.3948 14.3334 16.3003V18.3337H17.6667V16.3003C17.4556 16.3948 17.239 16.4698 17.0167 16.5253C16.7945 16.5809 16.5667 16.6225 16.3334 16.6503V17.0003H15.6667Z" fill="white"/>
</svg>
