<svg width="13" height="17" viewBox="0 0 13 17" fill="none" xmlns="http://www.w3.org/2000/svg">
<path d="M6.5 0C3.7994 0 2 1.3093 2 4L1.625 5.66667C0.5 5.66667 0 6.40085 0 7.28571V15.381C0 16.2658 0.736887 17 1.625 17H11.375C12.2631 17 13 16.2658 13 15.381V7.28571C13 6.40085 12.2631 5.66667 11.375 5.66667V4.85714C11.375 2.16644 9.2006 0 6.5 0ZM6.5 1.5C8.3494 1.5 9.75 3.01451 9.75 4.85714V5.66667H1.625L2 4H3.5C3.5 2.15737 4.6506 1.5 6.5 1.5ZM1.625 7.28571H11.375V15.381H1.625V7.28571ZM6.5 9.71429C5.60625 9.71429 4.875 10.4429 4.875 11.3333C4.875 12.2238 5.60625 12.9524 6.5 12.9524C7.39375 12.9524 8.125 12.2238 8.125 11.3333C8.125 10.4429 7.39375 9.71429 6.5 9.71429Z" fill="black"/>
</svg>
