<svg width="373" height="396" viewBox="0 0 373 396" fill="none" xmlns="http://www.w3.org/2000/svg">
<path d="M186.318 299.283C189.36 294.901 187.332 258.75 185.304 258.75C183.276 258.75 168.064 260.941 168.064 260.941C168.064 260.941 169.078 281.755 168.064 285.042C167.051 288.328 159.951 285.042 156.908 290.519C153.866 295.997 154.88 299.283 157.923 300.379C160.965 301.474 183.276 303.665 186.318 299.283Z" fill="white" stroke="black" stroke-width="3"/>
<path d="M218.789 308.019C222.471 303.813 220.016 269.107 217.561 269.107C215.107 269.107 196.692 271.211 196.692 271.211C196.692 271.211 197.919 291.193 196.692 294.348C195.465 297.503 186.871 294.348 183.188 299.606C179.505 304.864 180.733 308.019 184.415 309.071C188.098 310.123 215.107 312.226 218.789 308.019Z" fill="white" stroke="black" stroke-width="3"/>
<path d="M127.56 207.417C136.343 193.486 157.821 198.933 158.903 215.366L159.735 227.979C160.219 235.328 165.38 241.53 172.519 243.34L184.772 246.447C200.735 250.496 202.192 272.606 186.898 278.713L175.158 283.402C168.319 286.133 164.016 292.958 164.5 300.307L165.331 312.921C166.414 329.353 145.836 337.571 135.302 324.913L127.215 315.197C122.504 309.536 114.683 307.553 107.843 310.285L96.1039 314.973C80.8101 321.081 66.6355 304.05 75.4184 290.119L82.1602 279.426C86.0881 273.196 85.5576 265.145 80.8463 259.484L72.7597 249.768C62.2249 237.11 74.0422 218.366 90.0052 222.415L102.258 225.522C109.397 227.332 116.89 224.34 120.818 218.11L127.56 207.417Z" fill="#0084FF" fill-opacity="0.51"/>
<path d="M262.898 36.5719C264.964 33.2941 270.018 34.5757 270.273 38.4422L274.355 100.404C274.469 102.133 275.684 103.592 277.364 104.018L337.554 119.283C341.31 120.235 341.653 125.437 338.055 126.875L280.387 149.905C278.778 150.547 277.765 152.153 277.879 153.882L281.962 215.844C282.217 219.711 277.375 221.644 274.896 218.666L235.173 170.938C234.064 169.606 232.224 169.139 230.615 169.782L172.947 192.812C169.349 194.249 166.014 190.242 168.08 186.964L201.197 134.436C202.122 132.97 201.997 131.076 200.888 129.744L161.165 82.0154C158.686 79.0371 161.467 74.6268 165.223 75.5793L225.414 90.8437C227.093 91.2697 228.856 90.5656 229.781 89.0997L262.898 36.5719Z" fill="#490085" fill-opacity="0.47"/>
<path d="M269 250.407L254.576 150L215.353 170.695L164.742 157.665L124 180.914L128.808 284.643L173.346 260.627L220.667 278L269 250.407Z" fill="white" stroke="black" stroke-width="3" stroke-linecap="round"/>
<ellipse cx="3.45238" cy="4.31548" rx="3.45238" ry="4.31548" transform="matrix(-1 0 0 1 201.679 200.06)" fill="black"/>
<ellipse cx="3.45238" cy="4.31548" rx="3.45238" ry="4.31548" transform="matrix(-1 0 0 1 191.321 200.06)" fill="black"/>
<path d="M199.952 224.227C199.952 224.227 196.575 228.736 192.522 227.447C188.469 226.159 184.416 224.227 184.416 224.227" stroke="black" stroke-width="2" stroke-linecap="round"/>
</svg>
