<svg width="16" height="16" viewBox="0 0 16 16" fill="none" xmlns="http://www.w3.org/2000/svg">
<mask id="mask0_240_2742" style="mask-type:alpha" maskUnits="userSpaceOnUse" x="0" y="0" width="16" height="16">
<rect y="0.104492" width="15.6044" height="15.6044" fill="#D9D9D9"/>
</mask>
<g mask="url(#mask0_240_2742)">
<path d="M9.94773 10.963L10.858 10.0527L8.45231 7.64703V4.65619H7.15194V8.16718L9.94773 10.963ZM7.80212 14.4089C6.9027 14.4089 6.05747 14.2383 5.26641 13.8969C4.47535 13.5556 3.78724 13.0923 3.20208 12.5071C2.61691 11.922 2.15366 11.2339 1.81231 10.4428C1.47097 9.65176 1.30029 8.80652 1.30029 7.9071C1.30029 7.00768 1.47097 6.16245 1.81231 5.37139C2.15366 4.58033 2.61691 3.89222 3.20208 3.30706C3.78724 2.72189 4.47535 2.25864 5.26641 1.91729C6.05747 1.57595 6.9027 1.40527 7.80212 1.40527C8.70154 1.40527 9.54678 1.57595 10.3378 1.91729C11.1289 2.25864 11.817 2.72189 12.4022 3.30706C12.9873 3.89222 13.4506 4.58033 13.7919 5.37139C14.1333 6.16245 14.304 7.00768 14.304 7.9071C14.304 8.80652 14.1333 9.65176 13.7919 10.4428C13.4506 11.2339 12.9873 11.922 12.4022 12.5071C11.817 13.0923 11.1289 13.5556 10.3378 13.8969C9.54678 14.2383 8.70154 14.4089 7.80212 14.4089ZM7.80212 13.1086C9.24336 13.1086 10.4706 12.602 11.4838 11.5888C12.497 10.5756 13.0036 9.34834 13.0036 7.9071C13.0036 6.46587 12.497 5.23864 11.4838 4.22544C10.4706 3.21224 9.24336 2.70564 7.80212 2.70564C6.36088 2.70564 5.13366 3.21224 4.12046 4.22544C3.10726 5.23864 2.60066 6.46587 2.60066 7.9071C2.60066 9.34834 3.10726 10.5756 4.12046 11.5888C5.13366 12.602 6.36088 13.1086 7.80212 13.1086Z" fill="#1C1B1F"/>
</g>
</svg>
