<svg width="16" height="17" viewBox="0 0 16 17" fill="none" xmlns="http://www.w3.org/2000/svg">
<mask id="mask0_240_2737" style="mask-type:alpha" maskUnits="userSpaceOnUse" x="0" y="0" width="16" height="17">
<rect y="0.698242" width="15.6044" height="15.6044" fill="#D9D9D9"/>
</mask>
<g mask="url(#mask0_240_2737)">
<path d="M3.8035 11.8168C4.35615 11.3942 4.97383 11.061 5.65652 10.8171C6.33921 10.5733 7.05441 10.4514 7.80212 10.4514C8.54983 10.4514 9.26504 10.5733 9.94773 10.8171C10.6304 11.061 11.2481 11.3942 11.8007 11.8168C12.18 11.3725 12.4753 10.8686 12.6866 10.3051C12.8979 9.74162 13.0036 9.1402 13.0036 8.50085C13.0036 7.05962 12.497 5.83239 11.4838 4.81919C10.4706 3.80599 9.24336 3.29939 7.80212 3.29939C6.36088 3.29939 5.13366 3.80599 4.12046 4.81919C3.10726 5.83239 2.60066 7.05962 2.60066 8.50085C2.60066 9.1402 2.70631 9.74162 2.91762 10.3051C3.12893 10.8686 3.42422 11.3725 3.8035 11.8168ZM7.80212 9.15104C7.16278 9.15104 6.62367 8.9316 6.18479 8.49273C5.74592 8.05385 5.52648 7.51474 5.52648 6.8754C5.52648 6.23605 5.74592 5.69694 6.18479 5.25807C6.62367 4.81919 7.16278 4.59976 7.80212 4.59976C8.44147 4.59976 8.98058 4.81919 9.41945 5.25807C9.85833 5.69694 10.0778 6.23605 10.0778 6.8754C10.0778 7.51474 9.85833 8.05385 9.41945 8.49273C8.98058 8.9316 8.44147 9.15104 7.80212 9.15104ZM7.80212 15.0027C6.9027 15.0027 6.05747 14.832 5.26641 14.4907C4.47535 14.1493 3.78724 13.6861 3.20208 13.1009C2.61691 12.5157 2.15366 11.8276 1.81231 11.0366C1.47097 10.2455 1.30029 9.40027 1.30029 8.50085C1.30029 7.60143 1.47097 6.7562 1.81231 5.96514C2.15366 5.17408 2.61691 4.48597 3.20208 3.90081C3.78724 3.31564 4.47535 2.85239 5.26641 2.51104C6.05747 2.1697 6.9027 1.99902 7.80212 1.99902C8.70154 1.99902 9.54678 2.1697 10.3378 2.51104C11.1289 2.85239 11.817 3.31564 12.4022 3.90081C12.9873 4.48597 13.4506 5.17408 13.7919 5.96514C14.1333 6.7562 14.304 7.60143 14.304 8.50085C14.304 9.40027 14.1333 10.2455 13.7919 11.0366C13.4506 11.8276 12.9873 12.5157 12.4022 13.1009C11.817 13.6861 11.1289 14.1493 10.3378 14.4907C9.54678 14.832 8.70154 15.0027 7.80212 15.0027ZM7.80212 13.7023C8.37645 13.7023 8.91827 13.6183 9.42758 13.4504C9.93689 13.2824 10.4029 13.0413 10.8255 12.727C10.4029 12.4128 9.93689 12.1717 9.42758 12.0037C8.91827 11.8358 8.37645 11.7518 7.80212 11.7518C7.2278 11.7518 6.68598 11.8358 6.17667 12.0037C5.66736 12.1717 5.20139 12.4128 4.77877 12.727C5.20139 13.0413 5.66736 13.2824 6.17667 13.4504C6.68598 13.6183 7.2278 13.7023 7.80212 13.7023ZM7.80212 7.85067C8.08387 7.85067 8.31685 7.75856 8.50107 7.57434C8.68529 7.39012 8.7774 7.15714 8.7774 6.8754C8.7774 6.59365 8.68529 6.36067 8.50107 6.17645C8.31685 5.99223 8.08387 5.90012 7.80212 5.90012C7.52038 5.90012 7.2874 5.99223 7.10318 6.17645C6.91896 6.36067 6.82685 6.59365 6.82685 6.8754C6.82685 7.15714 6.91896 7.39012 7.10318 7.57434C7.2874 7.75856 7.52038 7.85067 7.80212 7.85067Z" fill="#1C1B1F"/>
</g>
</svg>
