<svg width="361" height="130" viewBox="0 0 361 130" fill="none" xmlns="http://www.w3.org/2000/svg">
<rect width="352" height="130" rx="12" fill="#EDE6F3"/>
<path d="M149.994 52.3324H190.564L195.896 57.6667V35.1015C195.896 34.0137 195.572 32.9705 194.996 32.2013C194.42 31.4321 193.639 31 192.825 31H149.992C149.178 31 148.397 31.4321 147.821 32.2013C147.245 32.9705 146.922 34.0137 146.922 35.1015V48.231C146.922 48.7697 147.001 49.3033 147.156 49.801C147.31 50.2988 147.536 50.751 147.822 51.1319C148.107 51.5128 148.446 51.8148 148.818 52.0208C149.191 52.2268 149.591 52.3327 149.994 52.3324Z" fill="black" fill-opacity="0.52"/>
<path opacity="0.11" d="M149.994 52.3324H190.564L195.896 57.6667V35.1015C195.896 34.0137 195.572 32.9705 194.996 32.2013C194.42 31.4321 193.639 31 192.825 31H149.992C149.178 31 148.397 31.4321 147.821 32.2013C147.245 32.9705 146.922 34.0137 146.922 35.1015V48.231C146.922 48.7697 147.001 49.3033 147.156 49.801C147.31 50.2988 147.536 50.751 147.822 51.1319C148.107 51.5128 148.446 51.8148 148.818 52.0208C149.191 52.2268 149.591 52.3327 149.994 52.3324Z" fill="#EDE6F3"/>
<path opacity="0.49" d="M149.994 52.3324H190.564L195.896 57.6667V35.1015C195.896 34.0137 195.572 32.9705 194.996 32.2013C194.42 31.4321 193.639 31 192.825 31H149.992C149.178 31 148.397 31.4321 147.821 32.2013C147.245 32.9705 146.922 34.0137 146.922 35.1015V48.231C146.922 48.7698 147.001 49.3033 147.156 49.801C147.31 50.2988 147.536 50.751 147.822 51.1319C148.107 51.5128 148.446 51.8148 148.818 52.0208C149.191 52.2268 149.591 52.3327 149.994 52.3324Z" fill="#EDE6F3"/>
<path d="M150.687 36.8005H192.133C192.167 36.7985 192.2 36.7788 192.224 36.7456C192.248 36.7124 192.261 36.6682 192.261 36.6222C192.261 36.5762 192.248 36.532 192.224 36.4988C192.2 36.4656 192.167 36.4459 192.133 36.4438H150.687C150.652 36.4459 150.62 36.4656 150.596 36.4988C150.572 36.532 150.559 36.5762 150.559 36.6222C150.559 36.6682 150.572 36.7124 150.596 36.7456C150.62 36.7788 150.652 36.7985 150.687 36.8005Z" fill="#EDE6F3"/>
<path d="M150.687 42.1534H192.133C192.167 42.1514 192.2 42.1317 192.224 42.0985C192.248 42.0653 192.261 42.0211 192.261 41.9751C192.261 41.9291 192.248 41.8849 192.224 41.8517C192.2 41.8185 192.167 41.7988 192.133 41.7968H150.687C150.652 41.7988 150.62 41.8185 150.596 41.8517C150.572 41.8849 150.559 41.9291 150.559 41.9751C150.559 42.0211 150.572 42.0653 150.596 42.0985C150.62 42.1317 150.652 42.1514 150.687 42.1534Z" fill="#EDE6F3"/>
<path d="M150.687 47.5062H177.439C177.457 47.5072 177.475 47.5034 177.492 47.4949C177.509 47.4864 177.524 47.4735 177.537 47.4568C177.55 47.4402 177.56 47.4201 177.568 47.398C177.575 47.3758 177.578 47.3519 177.578 47.3278C177.578 47.3037 177.575 47.2798 177.568 47.2577C177.56 47.2355 177.55 47.2155 177.537 47.1988C177.524 47.1821 177.509 47.1692 177.492 47.1607C177.475 47.1522 177.457 47.1484 177.439 47.1495H150.687C150.652 47.1515 150.62 47.1712 150.596 47.2044C150.572 47.2376 150.559 47.2818 150.559 47.3278C150.559 47.3738 150.572 47.418 150.596 47.4512C150.62 47.4844 150.652 47.5041 150.687 47.5062Z" fill="#EDE6F3"/>
<path d="M195.146 95.2209H252.621L260.174 102.778V70.8104C260.174 69.2694 259.716 67.7915 258.9 66.7018C258.084 65.6122 256.978 65 255.824 65H195.144C193.991 65 192.884 65.6122 192.068 66.7018C191.252 67.7915 190.794 69.2694 190.794 70.8104V89.4105C190.794 90.1738 190.907 90.9296 191.126 91.6348C191.344 92.3399 191.665 92.9806 192.069 93.5202C192.473 94.0597 192.953 94.4877 193.481 94.7795C194.009 95.0713 194.575 95.2213 195.146 95.2209Z" fill="black"/>
<path opacity="0.11" d="M195.146 95.2209H252.621L260.174 102.778V70.8104C260.174 69.2694 259.716 67.7915 258.9 66.7018C258.084 65.6122 256.978 65 255.824 65H195.144C193.991 65 192.884 65.6122 192.068 66.7018C191.252 67.7915 190.794 69.2694 190.794 70.8104V89.4105C190.794 90.1738 190.907 90.9296 191.126 91.6348C191.344 92.3399 191.665 92.9806 192.069 93.5202C192.473 94.0597 192.953 94.4877 193.481 94.7795C194.009 95.0713 194.575 95.2213 195.146 95.2209Z" fill="#EDE6F3"/>
<path opacity="0.49" d="M195.146 95.2209H252.621L260.174 102.778V70.8104C260.174 69.2694 259.716 67.7915 258.9 66.7018C258.084 65.6122 256.978 65 255.824 65H195.144C193.991 65 192.884 65.6122 192.068 66.7018C191.252 67.7915 190.794 69.2694 190.794 70.8104V89.4105C190.794 90.1738 190.907 90.9296 191.126 91.6348C191.344 92.3399 191.665 92.9806 192.069 93.5202C192.473 94.0597 192.953 94.4877 193.481 94.7795C194.009 95.0713 194.575 95.2213 195.146 95.2209Z" fill="#EDE6F3"/>
<path d="M196.128 73.2176H254.844C254.892 73.2147 254.938 73.1868 254.972 73.1398C255.006 73.0927 255.025 73.0301 255.025 72.9649C255.025 72.8998 255.006 72.8372 254.972 72.7901C254.938 72.7431 254.892 72.7152 254.844 72.7123H196.128C196.079 72.7152 196.033 72.7431 196 72.7901C195.966 72.8372 195.947 72.8998 195.947 72.9649C195.947 73.0301 195.966 73.0927 196 73.1398C196.033 73.1868 196.079 73.2147 196.128 73.2176Z" fill="#EDE6F3"/>
<path d="M196.128 80.8006H254.844C254.892 80.7977 254.938 80.7698 254.972 80.7228C255.006 80.6757 255.025 80.6131 255.025 80.5479C255.025 80.4828 255.006 80.4202 254.972 80.3731C254.938 80.3261 254.892 80.2982 254.844 80.2953H196.128C196.079 80.2982 196.033 80.3261 196 80.3731C195.966 80.4202 195.947 80.4828 195.947 80.5479C195.947 80.6131 195.966 80.6757 196 80.7228C196.033 80.7698 196.079 80.7977 196.128 80.8006Z" fill="#EDE6F3"/>
<path d="M196.128 88.3839H234.027C234.052 88.3854 234.078 88.38 234.102 88.3679C234.126 88.3559 234.147 88.3376 234.166 88.314C234.184 88.2903 234.199 88.262 234.209 88.2306C234.219 88.1992 234.224 88.1654 234.224 88.1312C234.224 88.097 234.219 88.0632 234.209 88.0318C234.199 88.0004 234.184 87.9721 234.166 87.9484C234.147 87.9248 234.126 87.9065 234.102 87.8945C234.078 87.8824 234.052 87.877 234.027 87.8785H196.128C196.079 87.8814 196.033 87.9093 196 87.9564C195.966 88.0034 195.947 88.0661 195.947 88.1312C195.947 88.1963 195.966 88.259 196 88.306C196.033 88.3531 196.079 88.381 196.128 88.3839Z" fill="#EDE6F3"/>
<path d="M98.6035 84.2002H36.8698L27.5479 94.6666V40.0481C27.5479 37.9136 28.1135 35.8665 29.1204 34.3572C30.1273 32.8479 31.4929 32 32.9168 32H98.6035C100.027 32.0001 101.393 32.8481 102.4 34.3574C103.407 35.8667 103.972 37.9137 103.972 40.0481V76.1526C103.972 78.2869 103.407 80.3339 102.4 81.8431C101.393 83.3523 100.027 84.2002 98.6035 84.2002Z" fill="#490085"/>
<path opacity="0.11" d="M98.6035 84.2002H36.8698L27.5479 94.6666V40.0481C27.5479 37.9136 28.1135 35.8665 29.1204 34.3572C30.1273 32.8479 31.4929 32 32.9168 32H98.6035C100.027 32.0001 101.393 32.8481 102.4 34.3574C103.407 35.8667 103.972 37.9137 103.972 40.0481V76.1526C103.972 78.2869 103.407 80.3339 102.4 81.8431C101.393 83.3523 100.027 84.2002 98.6035 84.2002Z" fill="#EDE6F3"/>
<path d="M34.1284 53.7251H97.3935C97.4555 53.7251 97.5149 53.6882 97.5587 53.6226C97.6025 53.5569 97.6271 53.4678 97.6271 53.375C97.6271 53.2821 97.6025 53.193 97.5587 53.1273C97.5149 53.0617 97.4555 53.0248 97.3935 53.0248H34.1284C34.0665 53.0248 34.0071 53.0617 33.9633 53.1273C33.9194 53.193 33.8948 53.2821 33.8948 53.375C33.8948 53.4678 33.9194 53.5569 33.9633 53.6226C34.0071 53.6882 34.0665 53.7251 34.1284 53.7251Z" fill="#EDE6F3"/>
<path d="M34.1284 43.7624H97.3935C97.4555 43.7624 97.5149 43.7255 97.5587 43.6598C97.6025 43.5941 97.6271 43.5051 97.6271 43.4122C97.6271 43.3193 97.6025 43.2302 97.5587 43.1646C97.5149 43.0989 97.4555 43.062 97.3935 43.062H34.1284C34.0665 43.062 34.0071 43.0989 33.9633 43.1646C33.9194 43.2302 33.8948 43.3193 33.8948 43.4122C33.8948 43.5051 33.9194 43.5941 33.9633 43.6598C34.0071 43.7255 34.0665 43.7624 34.1284 43.7624Z" fill="#EDE6F3"/>
<path d="M34.1284 64.2277H97.3935C97.4555 64.2277 97.5149 64.1908 97.5587 64.1251C97.6025 64.0595 97.6271 63.9704 97.6271 63.8775C97.6271 63.7846 97.6025 63.6956 97.5587 63.6299C97.5149 63.5642 97.4555 63.5273 97.3935 63.5273H34.1284C34.0665 63.5273 34.0071 63.5642 33.9633 63.6299C33.9194 63.6956 33.8948 63.7846 33.8948 63.8775C33.8948 63.9704 33.9194 64.0595 33.9633 64.1251C34.0071 64.1908 34.0665 64.2277 34.1284 64.2277Z" fill="#EDE6F3"/>
<path d="M34.1284 74.7313H71.7007C71.7627 74.7313 71.8221 74.6945 71.8659 74.6288C71.9097 74.5631 71.9344 74.474 71.9344 74.3812C71.9344 74.2883 71.9097 74.1992 71.8659 74.1336C71.8221 74.0679 71.7627 74.031 71.7007 74.031H34.1284C34.0665 74.031 34.0071 74.0679 33.9633 74.1336C33.9194 74.1992 33.8948 74.2883 33.8948 74.3812C33.8948 74.474 33.9194 74.5631 33.9633 74.6288C34.0071 74.6945 34.0665 74.7313 34.1284 74.7313Z" fill="#EDE6F3"/>
<path d="M160.269 101.042H121.193L115.293 107.667V73.0943C115.293 71.7432 115.651 70.4474 116.288 69.4921C116.925 68.5367 117.79 68 118.691 68H160.269C161.171 68.0001 162.035 68.5368 162.672 69.4922C163.31 70.4475 163.668 71.7432 163.668 73.0943V95.9476C163.668 97.2986 163.31 98.5943 162.672 99.5496C162.035 100.505 161.171 101.042 160.269 101.042Z" fill="#490085" fill-opacity="0.45"/>
<path opacity="0.11" d="M160.269 101.042H121.193L115.293 107.667V73.0943C115.293 71.7432 115.651 70.4474 116.288 69.4921C116.925 68.5367 117.79 68 118.691 68H160.269C161.171 68.0001 162.035 68.5368 162.672 69.4922C163.31 70.4475 163.668 71.7432 163.668 73.0943V95.9476C163.668 97.2986 163.31 98.5943 162.672 99.5496C162.035 100.505 161.171 101.042 160.269 101.042Z" fill="#EDE6F3"/>
<path d="M119.458 81.7515H159.504C159.543 81.7515 159.58 81.7282 159.608 81.6866C159.636 81.645 159.651 81.5887 159.651 81.5299C159.651 81.4711 159.636 81.4147 159.608 81.3731C159.58 81.3316 159.543 81.3082 159.504 81.3082H119.458C119.419 81.3082 119.381 81.3316 119.354 81.3731C119.326 81.4147 119.31 81.4711 119.31 81.5299C119.31 81.5887 119.326 81.645 119.354 81.6866C119.381 81.7282 119.419 81.7515 119.458 81.7515Z" fill="#EDE6F3"/>
<path d="M119.458 75.4454H159.504C159.543 75.4454 159.58 75.422 159.608 75.3805C159.636 75.3389 159.651 75.2825 159.651 75.2237C159.651 75.1649 159.636 75.1086 159.608 75.067C159.58 75.0254 159.543 75.0021 159.504 75.0021H119.458C119.419 75.0021 119.381 75.0254 119.354 75.067C119.326 75.1086 119.31 75.1649 119.31 75.2237C119.31 75.2825 119.326 75.3389 119.354 75.3805C119.381 75.422 119.419 75.4454 119.458 75.4454Z" fill="#EDE6F3"/>
<path d="M119.458 88.3995H159.504C159.543 88.3995 159.58 88.3761 159.608 88.3346C159.636 88.293 159.651 88.2366 159.651 88.1778C159.651 88.119 159.636 88.0627 159.608 88.0211C159.58 87.9795 159.543 87.9562 159.504 87.9562H119.458C119.419 87.9562 119.381 87.9795 119.354 88.0211C119.326 88.0627 119.31 88.119 119.31 88.1778C119.31 88.2366 119.326 88.293 119.354 88.3346C119.381 88.3761 119.419 88.3995 119.458 88.3995Z" fill="#EDE6F3"/>
<path d="M119.458 95.048H143.241C143.28 95.048 143.317 95.0247 143.345 94.9831C143.373 94.9415 143.388 94.8852 143.388 94.8264C143.388 94.7676 143.373 94.7112 143.345 94.6697C143.317 94.6281 143.28 94.6047 143.241 94.6047H119.458C119.419 94.6047 119.381 94.6281 119.354 94.6697C119.326 94.7112 119.31 94.7676 119.31 94.8264C119.31 94.8852 119.326 94.9415 119.354 94.9831C119.381 95.0247 119.419 95.048 119.458 95.048Z" fill="#EDE6F3"/>
<path opacity="0.2" d="M308.5 114.608C329.211 114.608 346 98.578 346 78.804C346 59.03 329.211 43 308.5 43C287.789 43 271 59.03 271 78.804C271 98.578 287.789 114.608 308.5 114.608Z" fill="#490085" fill-opacity="0.25"/>
<path d="M315.283 125.141C315.283 125.141 314.907 127.359 313.083 127.483C311.258 127.607 311.654 129.261 311.654 129.261H318.625V125.295L315.283 125.141Z" fill="#490085"/>
<path d="M319.098 84.6747C319.098 84.6747 319.076 84.0078 319.081 85.5206C319.098 91.1629 318.933 126.556 318.933 126.556L314.352 126.512L311.577 84.4454L319.098 84.6747Z" fill="#262626"/>
<path d="M307.46 125.141C307.46 125.141 307.084 127.359 305.26 127.483C303.436 127.607 303.831 129.261 303.831 129.261H310.803V125.295L307.46 125.141Z" fill="#490085"/>
<path d="M306.574 85.1128C306.574 85.1128 306.001 104.397 306.061 105.34L306.599 126.41L311.104 126.505L311.831 104.577C311.831 104.577 312.307 98.5286 313.591 92.912C314.248 90.0293 314.643 87.0776 314.77 84.103L306.574 85.1128Z" fill="#262626"/>
<path d="M312.518 98.7854L312.142 92.2445C312.142 92.2445 311.756 94.9638 311.756 97.3076C311.756 98.4532 311.964 102.989 311.964 102.989L312.518 98.7854Z" fill="#0A0A0A"/>
<path d="M319.148 84.6734L319.163 84.6744C319.163 84.6744 319.152 84.3472 319.148 84.6734Z" fill="#333333"/>
<path d="M319.129 84.6733L319.144 84.6743C319.144 84.6743 319.133 84.3471 319.129 84.6733Z" fill="#333333"/>
<path d="M294.026 69.0217C294.054 68.9595 294.098 68.9086 294.152 68.8759C294.206 68.8433 294.267 68.8307 294.328 68.8397C294.328 68.8335 294.329 68.8274 294.331 68.822C294.334 68.8179 294.338 68.8146 294.342 68.8127C294.347 68.8107 294.351 68.81 294.356 68.8107L294.151 68.6435C294.09 68.5958 294.045 68.5244 294.027 68.4425C294.008 68.3606 294.016 68.2737 294.049 68.1981C294.084 68.1245 294.142 68.0683 294.211 68.0405C294.28 68.0126 294.356 68.015 294.424 68.0473C294.424 68.0439 294.426 68.0408 294.426 68.0378L294.342 67.9691C294.284 67.9238 294.242 67.8573 294.223 67.7807C294.203 67.7042 294.208 67.6224 294.235 67.5491C294.253 67.5035 294.28 67.4631 294.313 67.4308C294.347 67.3984 294.386 67.3749 294.428 67.3619C294.471 67.3489 294.515 67.3468 294.558 67.3557C294.602 67.3646 294.642 67.3844 294.678 67.4134L294.872 67.5719C294.873 67.5706 294.872 67.5691 294.873 67.5679C294.874 67.5666 294.876 67.5662 294.877 67.5649C294.833 67.5078 294.806 67.4351 294.803 67.3588C294.799 67.2824 294.819 67.207 294.858 67.1448C294.949 66.9769 295.161 67.0112 295.287 67.1137L296.43 68.0128L296.225 67.6211C296.184 67.5457 296.17 67.4554 296.185 67.3684C296.2 67.2813 296.244 67.204 296.307 67.152C296.34 67.1266 296.378 67.1091 296.417 67.1007C296.457 67.0924 296.498 67.0933 296.537 67.1034C296.576 67.1135 296.613 67.1326 296.646 67.1595C296.678 67.1865 296.706 67.2207 296.726 67.2601L297.842 69.3987C297.973 69.6496 298.013 69.9487 297.953 70.2324C297.893 70.5162 297.739 70.7623 297.522 70.9184C297.271 71.0995 296.978 71.191 296.681 71.1813C296.384 71.1716 296.096 71.0611 295.854 70.8639L294.128 69.455C294.071 69.4064 294.029 69.3372 294.011 69.2585C293.992 69.1799 293.998 69.0965 294.026 69.0217Z" fill="#E98862"/>
<g opacity="0.25">
<path d="M296.004 68.4605C296 68.467 295.993 68.4714 295.986 68.4728C295.979 68.4742 295.972 68.4724 295.966 68.4678L294.88 67.6111C294.877 67.6088 294.874 67.6059 294.872 67.6024C294.87 67.599 294.868 67.5951 294.868 67.5909C294.867 67.5868 294.867 67.5826 294.868 67.5785C294.868 67.5743 294.87 67.5704 294.872 67.567C294.874 67.5635 294.877 67.5606 294.88 67.5584C294.883 67.5561 294.886 67.5546 294.89 67.554C294.894 67.5533 294.897 67.5535 294.901 67.5545C294.905 67.5555 294.908 67.5574 294.911 67.5599L295.997 68.4166C296.003 68.4213 296.007 68.4285 296.008 68.4366C296.01 68.4447 296.008 68.4531 296.004 68.4599L296.004 68.4605Z" fill="#0C0C0C"/>
</g>
<g opacity="0.25">
<path d="M295.685 69.0162C295.681 69.0228 295.675 69.0272 295.668 69.0286C295.661 69.03 295.653 69.0281 295.647 69.0235L294.435 68.0675C294.429 68.0628 294.425 68.0556 294.424 68.0475C294.423 68.0394 294.424 68.031 294.429 68.0242C294.433 68.0177 294.439 68.0132 294.446 68.0118C294.453 68.0103 294.461 68.0119 294.467 68.0163L295.679 68.9728C295.685 68.9775 295.689 68.9847 295.69 68.9928C295.691 69.0009 295.69 69.0093 295.685 69.0161L295.685 69.0162Z" fill="#0C0C0C"/>
</g>
<g opacity="0.25">
<path d="M295.343 69.6206C295.339 69.6271 295.332 69.6316 295.325 69.633C295.318 69.6343 295.311 69.6325 295.305 69.6278L294.338 68.8653C294.335 68.863 294.333 68.86 294.331 68.8566C294.329 68.8531 294.327 68.8493 294.327 68.8453C294.326 68.8413 294.326 68.8371 294.327 68.8331C294.328 68.8291 294.329 68.8254 294.331 68.822C294.333 68.8186 294.336 68.8158 294.339 68.8136C294.342 68.8113 294.345 68.8098 294.349 68.8091C294.352 68.8084 294.356 68.8084 294.36 68.8093C294.363 68.8102 294.366 68.8118 294.369 68.8141L295.336 69.5767C295.342 69.5814 295.346 69.5886 295.348 69.5967C295.349 69.6048 295.347 69.6132 295.343 69.62L295.343 69.6206Z" fill="#0C0C0C"/>
</g>
<path d="M298.5 68.9115L301.777 75.2651L305.775 69.2945L309.096 72.7026L303.425 81.0635L303.388 81.123C303.161 81.477 302.859 81.7593 302.509 81.9434C302.16 82.1275 301.775 82.2073 301.392 82.1753C301.008 82.1433 300.637 82.0006 300.315 81.7606C299.993 81.5205 299.73 81.1911 299.551 80.8033L294.891 71.1966L298.5 68.9115Z" fill="#490085"/>
<path d="M302.098 76.0291C302.105 76.0291 302.111 76.0273 302.117 76.0239C302.127 76.0181 302.134 76.0082 302.138 75.9963C302.141 75.9843 302.14 75.9714 302.135 75.9602L301.814 75.2435C301.812 75.2378 301.808 75.2327 301.804 75.2284C301.8 75.2242 301.795 75.221 301.79 75.219C301.785 75.2169 301.779 75.2161 301.774 75.2166C301.768 75.217 301.763 75.2187 301.758 75.2216C301.753 75.2245 301.748 75.2285 301.745 75.2334C301.741 75.2382 301.738 75.2438 301.737 75.2499C301.735 75.256 301.735 75.2623 301.735 75.2687C301.736 75.275 301.737 75.2811 301.74 75.2866L302.061 76.0033C302.065 76.0111 302.07 76.0176 302.077 76.0221C302.083 76.0267 302.091 76.0291 302.098 76.0291Z" fill="#0C0C0C"/>
<path d="M316.564 60.7058C316.564 60.7058 316.718 62.9395 317.168 63.7448C318.463 66.0628 318.858 68.6846 317.599 70.0735C316.339 71.4625 308.216 71.5887 307.569 68.4405C307.024 65.7901 308.133 65.4897 308.381 63.2938C308.493 62.3003 308.809 60.2161 308.809 60.2161" fill="#0A0A0A"/>
<path d="M309.637 67.9372C309.651 67.9351 309.807 70.8746 312.807 70.6183C314.883 70.4413 315.623 67.933 315.671 67.933C315.447 67.8788 315.07 67.8003 314.971 67.7397C314.644 67.5396 314.239 67.3315 314.134 66.6085C314.073 66.1915 314.176 64.0603 314.144 63.6387L310.957 64.4487C311.001 65.339 311.313 67.4031 310.221 67.7684C310.038 67.8289 309.843 67.8844 309.637 67.9372Z" fill="#E98862"/>
<path opacity="0.52" d="M310.912 66.9249C310.962 66.7418 310.994 66.5529 311.008 66.3617C311.043 65.9255 311.036 65.4862 310.987 65.0517C311.635 64.9522 312.245 64.6478 312.748 64.1731C312.808 64.4219 313.133 65.5095 313.043 65.7458C312.873 66.1929 312.072 66.9249 310.912 66.9249Z" fill="#0C0C0C"/>
<path d="M311.334 65.9997C312.592 66.1216 314.212 65.528 314.53 63.6183L314.816 61.8952C315.134 59.9856 314.51 58.2478 312.931 57.9075C311.351 57.5672 309.914 58.8609 309.596 60.7705L309.469 61.5334C309.348 62.2661 309.09 65.7823 311.334 65.9997Z" fill="#E98862"/>
<path d="M309.92 61.6166C310.029 61.6166 310.118 61.5156 310.118 61.3912C310.118 61.2667 310.029 61.1658 309.92 61.1658C309.81 61.1658 309.722 61.2667 309.722 61.3912C309.722 61.5156 309.81 61.6166 309.92 61.6166Z" fill="#0C0C0C"/>
<path d="M311.948 61.925C312.057 61.925 312.146 61.8241 312.146 61.6996C312.146 61.5752 312.057 61.4742 311.948 61.4742C311.838 61.4742 311.75 61.5752 311.75 61.6996C311.75 61.8241 311.838 61.925 311.948 61.925Z" fill="#0C0C0C"/>
<path opacity="0.52" d="M310.835 63.3522L310.832 63.3516C310.768 63.3373 310.704 63.319 310.642 63.2968C310.549 63.2627 310.428 63.2064 310.444 63.111C310.462 63.0022 310.919 61.8846 310.971 61.7575C310.973 61.752 310.976 61.7471 310.98 61.743C310.984 61.7389 310.989 61.7357 310.994 61.7336C310.999 61.7315 311.004 61.7306 311.009 61.7309C311.014 61.7311 311.02 61.7326 311.025 61.7352C311.029 61.7377 311.034 61.7414 311.037 61.7458C311.041 61.7503 311.044 61.7555 311.045 61.7612C311.047 61.7669 311.048 61.773 311.048 61.779C311.048 61.7851 311.046 61.791 311.044 61.7965C310.849 62.2724 310.535 63.0549 310.523 63.1282C310.534 63.1621 310.688 63.2266 310.847 63.2608C310.857 63.2629 310.866 63.2695 310.873 63.2793C310.879 63.2891 310.881 63.3012 310.88 63.3131C310.878 63.3251 310.873 63.3358 310.864 63.3431C310.856 63.3504 310.845 63.3537 310.835 63.3522Z" fill="#0C0C0C"/>
<path opacity="0.52" d="M311.069 64.1769C310.811 64.1388 310.565 64.0323 310.35 63.8661C310.346 63.8628 310.342 63.8585 310.339 63.8535C310.336 63.8485 310.334 63.8429 310.332 63.8369C310.331 63.831 310.331 63.8249 310.332 63.8189C310.333 63.813 310.335 63.8073 310.338 63.8022C310.341 63.7971 310.345 63.7927 310.349 63.7893C310.354 63.7859 310.359 63.7835 310.364 63.7822C310.369 63.781 310.374 63.7809 310.38 63.782C310.385 63.7832 310.39 63.7854 310.394 63.7887C310.859 64.1336 311.321 64.1893 311.73 63.9499C311.738 63.9448 311.747 63.9401 311.756 63.936C311.766 63.9319 311.777 63.9325 311.787 63.9377C311.796 63.9429 311.804 63.9523 311.808 63.9638C311.811 63.9753 311.811 63.988 311.806 63.9991C311.802 64.0102 311.793 64.0188 311.783 64.023C311.78 64.0245 311.775 64.0277 311.767 64.0324C311.552 64.1587 311.309 64.209 311.069 64.1769Z" fill="#0C0C0C"/>
<path d="M316.08 62.4958L314.664 62.2002C313.592 61.7063 313.268 59.5937 313.268 59.5937C313.268 59.5937 311.965 61.0388 308.809 60.2169C308.809 60.2169 309.442 55.2059 314.105 56.6625C315.608 57.1324 316.687 58.8572 316.552 61.1625C316.458 62.7779 316.08 62.4958 316.08 62.4958Z" fill="#0A0A0A"/>
<path d="M314.335 64.1789C314.815 64.2823 315.301 63.7816 315.392 63.2352C315.483 62.6889 315.144 62.3036 314.664 62.2002L314.356 62.513L313.923 64.0899L314.335 64.1789Z" fill="#E98862"/>
<path d="M310.681 60.8441C310.541 60.7412 310.38 60.6831 310.213 60.6757C310.131 60.6716 310.049 60.6815 309.97 60.7051C309.891 60.7281 309.815 60.7622 309.744 60.8068C309.735 60.8127 309.727 60.8226 309.724 60.8344C309.721 60.8462 309.721 60.8591 309.726 60.8703C309.731 60.8815 309.739 60.8902 309.749 60.8945C309.76 60.8989 309.771 60.8985 309.781 60.8936L309.784 60.8921C309.85 60.8553 309.919 60.8281 309.991 60.811C310.062 60.7937 310.135 60.7887 310.207 60.7963C310.35 60.8099 310.488 60.8665 310.605 60.9602L310.609 60.9633C310.616 60.9689 310.624 60.9729 310.632 60.9751C310.64 60.9774 310.648 60.9778 310.657 60.9763C310.665 60.9748 310.673 60.9715 310.68 60.9665C310.687 60.9615 310.693 60.955 310.698 60.9473C310.703 60.9396 310.707 60.9308 310.709 60.9216C310.711 60.9123 310.711 60.9027 310.71 60.8933C310.708 60.8839 310.705 60.8749 310.701 60.8667C310.697 60.8586 310.691 60.8515 310.684 60.8459L310.681 60.8441Z" fill="#0C0C0C"/>
<path d="M311.944 61.1826C312.084 61.1436 312.23 61.1474 312.368 61.1936C312.437 61.2163 312.504 61.2509 312.564 61.2961C312.626 61.3417 312.682 61.3958 312.731 61.4572L312.734 61.4599C312.741 61.4688 312.752 61.4738 312.763 61.4741C312.774 61.4743 312.785 61.4696 312.793 61.4611C312.801 61.4526 312.805 61.4408 312.806 61.4283C312.807 61.4158 312.803 61.4035 312.796 61.3941C312.743 61.3233 312.684 61.2602 312.618 61.2064C312.551 61.1518 312.478 61.1089 312.4 61.0791C312.242 61.0173 312.073 61.0049 311.91 61.0434C311.902 61.0454 311.894 61.0492 311.887 61.0546C311.88 61.06 311.874 61.0669 311.87 61.0749C311.865 61.0829 311.862 61.0918 311.861 61.1012C311.859 61.1105 311.859 61.1201 311.861 61.1294C311.863 61.1387 311.866 61.1475 311.871 61.1554C311.876 61.1632 311.882 61.1699 311.889 61.175C311.896 61.1802 311.904 61.1837 311.912 61.1855C311.92 61.1872 311.928 61.187 311.937 61.185L311.939 61.1844L311.944 61.1826Z" fill="#0C0C0C"/>
<path opacity="0.52" d="M311.014 64.6091C310.967 64.6031 310.921 64.5926 310.876 64.5777C310.871 64.5761 310.866 64.5734 310.862 64.5697C310.857 64.5659 310.854 64.5613 310.851 64.5559C310.849 64.5506 310.847 64.5448 310.846 64.5387C310.846 64.5327 310.846 64.5266 310.848 64.5207C310.849 64.5149 310.852 64.5094 310.855 64.5047C310.858 64.4999 310.862 64.496 310.867 64.4931C310.872 64.4902 310.877 64.4883 310.882 64.4877C310.888 64.4871 310.893 64.4877 310.898 64.4895C311.17 64.5779 311.324 64.4607 311.331 64.4557C311.339 64.4487 311.35 64.446 311.361 64.4481C311.372 64.4502 311.381 64.457 311.387 64.467C311.393 64.477 311.396 64.4894 311.394 64.5014C311.392 64.5135 311.386 64.5241 311.377 64.5311C311.268 64.6039 311.139 64.6315 311.014 64.6091Z" fill="#0C0C0C"/>
<path d="M314.661 62.1799L314.675 62.1353C312.881 61.4022 313.32 59.3982 313.324 59.378L313.284 59.366C313.279 59.3865 312.831 61.432 314.661 62.1799Z" fill="#0C0C0C"/>
<path opacity="0.1" d="M312.512 63.2252C312.528 63.0523 312.374 62.8915 312.166 62.8661C311.959 62.8408 311.778 62.9604 311.762 63.1334C311.746 63.3063 311.9 63.4671 312.107 63.4925C312.314 63.5178 312.495 63.3982 312.512 63.2252Z" fill="#0C0C0C"/>
<path opacity="0.1" d="M309.915 62.8309C309.899 63.0036 309.718 63.1231 309.511 63.098C309.475 63.0936 309.439 63.085 309.405 63.0723C309.394 62.8668 309.391 62.669 309.394 62.4859C309.452 62.4687 309.511 62.464 309.57 62.4718C309.777 62.4969 309.932 62.6576 309.915 62.8309Z" fill="#0C0C0C"/>
<path d="M305.91 74.4088C306.005 75.6724 306.464 83.5563 306.555 85.1128H319.074C319.145 83.7089 319.462 77.5704 319.731 74.8252C319.987 72.2055 320.489 70.8939 320.121 70.1195C319.52 68.8538 317.875 68.1224 316.754 67.9492C316.07 67.8437 315.04 67.7681 315.04 67.7681C315.04 67.7681 314.953 69.7757 312.875 69.8873C310.045 70.039 310.234 67.7681 310.22 67.7681C309.762 67.7681 307.143 68.0984 306.503 68.5307C304.757 69.708 305.71 71.7311 305.91 74.4088Z" fill="#490085"/>
<path d="M305.81 80.6124C305.814 80.5428 305.837 80.4764 305.876 80.4222C305.914 80.3681 305.966 80.3289 306.025 80.31C306.023 80.3064 306.022 80.3024 306.022 80.2982C306.022 80.294 306.022 80.2898 306.024 80.2859C306.026 80.2821 306.028 80.2787 306.031 80.2761C306.034 80.2735 306.037 80.2718 306.041 80.2711L305.795 80.2089C305.722 80.1922 305.657 80.1462 305.612 80.0793C305.566 80.0124 305.544 79.9291 305.548 79.8447C305.555 79.7615 305.588 79.6842 305.642 79.6276C305.696 79.5711 305.767 79.5394 305.84 79.5387C305.839 79.5358 305.839 79.5321 305.838 79.5292L305.737 79.5036C305.669 79.4877 305.607 79.4454 305.563 79.3837C305.519 79.322 305.494 79.2447 305.494 79.165C305.495 79.1151 305.506 79.066 305.526 79.0213C305.545 78.9765 305.573 78.9373 305.608 78.9065C305.642 78.8756 305.682 78.8538 305.725 78.8427C305.768 78.8316 305.812 78.8314 305.855 78.8422L306.088 78.9012C306.088 78.8997 306.087 78.8986 306.087 78.8971C306.088 78.8956 306.09 78.8943 306.09 78.8925C306.029 78.8599 305.98 78.8048 305.951 78.7362C305.921 78.6676 305.913 78.5896 305.927 78.515C305.954 78.3196 306.16 78.2564 306.311 78.2946L307.673 78.6106L307.35 78.3417C307.286 78.2907 307.241 78.2141 307.225 78.1273C307.209 78.0405 307.222 77.9499 307.263 77.8739C307.285 77.8355 307.313 77.8026 307.347 77.7772C307.38 77.7518 307.418 77.7345 307.458 77.7262C307.497 77.718 307.538 77.719 307.577 77.7292C307.616 77.7395 307.653 77.7587 307.686 77.7857L309.45 79.2538C309.656 79.426 309.796 79.6833 309.839 79.971C309.882 80.2586 309.825 80.5541 309.68 80.7945C309.511 81.0732 309.273 81.2883 308.997 81.4122C308.72 81.5361 308.417 81.5631 308.127 81.4898L306.053 80.9658C305.984 80.9467 305.922 80.9014 305.878 80.8372C305.834 80.7731 305.81 80.6938 305.81 80.6124Z" fill="#E98862"/>
<g opacity="0.25">
<path d="M307.436 79.2127C307.434 79.2206 307.43 79.2275 307.424 79.2319C307.418 79.2363 307.41 79.2379 307.403 79.2363L306.109 78.934C306.102 78.9324 306.096 78.9276 306.092 78.9207C306.088 78.9138 306.086 78.9054 306.088 78.8973C306.089 78.8892 306.093 78.8821 306.099 78.8776C306.105 78.873 306.113 78.8714 306.12 78.8731L307.414 79.1752C307.418 79.1761 307.421 79.1777 307.424 79.18C307.427 79.1823 307.43 79.1852 307.432 79.1886C307.434 79.192 307.435 79.1959 307.436 79.1999C307.436 79.2039 307.436 79.208 307.436 79.212L307.436 79.2127Z" fill="#0C0C0C"/>
</g>
<g opacity="0.25">
<path d="M307.334 79.8663C307.333 79.8742 307.328 79.8811 307.322 79.8855C307.316 79.8899 307.309 79.8915 307.302 79.8898L305.858 79.5525C305.854 79.5517 305.851 79.5501 305.848 79.5478C305.845 79.5455 305.842 79.5425 305.84 79.5391C305.838 79.5357 305.837 79.5319 305.836 79.5279C305.836 79.5239 305.836 79.5197 305.836 79.5157C305.838 79.5078 305.842 79.5009 305.848 79.4964C305.854 79.4919 305.862 79.4902 305.869 79.4916L307.313 79.8288C307.317 79.8296 307.32 79.8312 307.323 79.8335C307.326 79.8358 307.329 79.8387 307.331 79.8422C307.333 79.8456 307.334 79.8494 307.335 79.8534C307.335 79.8574 307.335 79.8616 307.335 79.8656L307.334 79.8663Z" fill="#0C0C0C"/>
</g>
<g opacity="0.25">
<path d="M307.228 80.575C307.226 80.5829 307.222 80.5898 307.216 80.5942C307.21 80.5986 307.203 80.6002 307.196 80.5985L306.044 80.3295C306.04 80.3287 306.037 80.3271 306.034 80.3248C306.031 80.3225 306.028 80.3196 306.026 80.3162C306.024 80.3128 306.023 80.3089 306.022 80.3049C306.022 80.3009 306.022 80.2968 306.022 80.2928C306.023 80.2888 306.024 80.285 306.026 80.2816C306.029 80.2782 306.031 80.2753 306.034 80.2731C306.037 80.2708 306.04 80.2693 306.044 80.2685C306.047 80.2677 306.051 80.2678 306.055 80.2686L307.207 80.5376C307.214 80.5392 307.22 80.544 307.224 80.5509C307.228 80.5578 307.23 80.5663 307.228 80.5743L307.228 80.575Z" fill="#0C0C0C"/>
</g>
<path d="M308.255 82.4241L319.507 84.739C319.858 84.7826 320.213 84.7329 320.544 84.5938C320.876 84.4548 321.174 84.2303 321.417 83.9378C321.659 83.6453 321.838 83.2929 321.941 82.9081C322.044 82.5234 322.067 82.1168 322.008 81.7203L320.433 71.0611C320.383 70.7241 320.275 70.4016 320.116 70.1119C319.957 69.8223 319.749 69.5712 319.504 69.373C319.26 69.1748 318.983 69.0334 318.691 68.9568C318.398 68.8802 318.095 68.87 317.799 68.9267C317.503 68.9834 317.22 69.1059 316.966 69.2873C316.711 69.4686 316.491 69.7053 316.317 69.9836C316.143 70.262 316.018 70.5767 315.951 70.9098C315.884 71.2428 315.875 71.5877 315.925 71.9247L316.999 79.2624L308.75 78.0829L308.255 82.4241Z" fill="#490085"/>
<path d="M319.507 84.7864C319.517 84.7863 319.527 84.7819 319.535 84.7739C319.542 84.7659 319.547 84.7549 319.548 84.7432C319.549 84.7314 319.546 84.7196 319.54 84.7102C319.533 84.7008 319.524 84.6944 319.514 84.6923L308.302 82.3855L308.786 78.1358L316.993 79.3093C317 79.3102 317.006 79.3094 317.013 79.307C317.019 79.3045 317.024 79.3005 317.029 79.2951C317.033 79.2898 317.037 79.2833 317.039 79.2763C317.04 79.2692 317.041 79.2617 317.04 79.2544L316.357 74.5648C316.356 74.5587 316.354 74.5527 316.351 74.5474C316.349 74.5421 316.345 74.5375 316.34 74.5339C316.336 74.5302 316.331 74.5277 316.326 74.5263C316.32 74.5249 316.315 74.5248 316.309 74.5259C316.298 74.5279 316.289 74.5348 316.282 74.5451C316.276 74.5553 316.273 74.568 316.275 74.5804L316.949 79.2072L308.755 78.0358C308.744 78.0342 308.733 78.0377 308.724 78.0453C308.716 78.053 308.71 78.0643 308.708 78.0767L308.214 82.4178C308.212 82.4299 308.215 82.4421 308.221 82.452C308.228 82.4618 308.237 82.4685 308.248 82.4706L319.499 84.7855C319.501 84.786 319.504 84.7863 319.507 84.7864Z" fill="#0C0C0C"/>
<path d="M316.99 79.2519L316.977 79.3446L317.701 79.4764L317.714 79.3837L316.99 79.2519Z" fill="#0C0C0C"/>
<path d="M306.006 75.2292L305.923 75.2346L306.023 77.2414L306.106 77.236L306.006 75.2292Z" fill="#0C0C0C"/>
</svg>
