<svg width="125" height="121" viewBox="0 0 125 121" fill="none" xmlns="http://www.w3.org/2000/svg">
<path d="M62.5 0.276978C28 0.276978 0 27.1267 0 60.2095C0 93.2922 28 120.142 62.5 120.142C97 120.142 125 93.2922 125 60.2095C125 27.1267 97 0.276978 62.5 0.276978ZM62.5 24.25C74.5625 24.25 84.375 33.6594 84.375 45.2264C84.375 56.7933 74.5625 66.2027 62.5 66.2027C50.4375 66.2027 40.625 56.7933 40.625 45.2264C40.625 33.6594 50.4375 24.25 62.5 24.25ZM62.5 108.155C49.8125 108.155 34.8125 103.241 24.125 90.8949C34.6875 82.9838 48 78.1892 62.5 78.1892C77 78.1892 90.3125 82.9838 100.875 90.8949C90.1875 103.241 75.1875 108.155 62.5 108.155Z" fill="#787676"/>
</svg>
