<svg width="22" height="22" viewBox="0 0 22 22" fill="none" xmlns="http://www.w3.org/2000/svg">
<path d="M11 18.15C11.913 18.15 12.65 17.413 12.65 16.5H9.35C9.35 17.413 10.087 18.15 11 18.15ZM11 0C4.928 0 0 4.928 0 11C0 17.072 4.928 22 11 22C17.072 22 22 17.072 22 11C22 4.928 17.072 0 11 0ZM11 19.8C6.149 19.8 2.2 15.851 2.2 11C2.2 6.149 6.149 2.2 11 2.2C15.851 2.2 19.8 6.149 19.8 11C19.8 15.851 15.851 19.8 11 19.8ZM15.4 10.329C15.4 8.008 14.267 6.017 12.1 5.5V4.95C12.1 4.323 11.627 3.85 11 3.85C10.373 3.85 9.9 4.323 9.9 4.95V5.5C7.733 6.017 6.6 7.997 6.6 10.329V13.2H5.5V15.4H16.5V13.2H15.4V10.329ZM13.2 13.2H8.8V9.9C8.8 8.69 9.79 7.7 11 7.7C12.21 7.7 13.2 8.69 13.2 9.9V13.2Z" fill="black"/>
</svg>
