<svg width="345" height="328" viewBox="0 0 345 328" fill="none" xmlns="http://www.w3.org/2000/svg">
<rect width="345" height="328" rx="13" fill="#D9D9D9"/>
<path d="M185.061 252.494C181.159 246.873 183.761 200.5 186.362 200.5C188.963 200.5 208.476 203.311 208.476 203.311C208.476 203.311 207.176 230.01 208.476 234.226C209.777 238.442 218.884 234.226 222.786 241.252C226.689 248.279 225.388 252.494 221.486 253.9C217.583 255.305 188.963 258.115 185.061 252.494Z" fill="white" stroke="black" stroke-opacity="0.18" stroke-width="3"/>
<path d="M143.409 263.7C138.685 258.304 141.835 213.786 144.983 213.786C148.132 213.786 171.753 216.484 171.753 216.484C171.753 216.484 170.18 242.116 171.753 246.163C173.327 250.21 184.352 246.163 189.076 252.908C193.8 259.653 192.226 263.7 187.501 265.049C182.777 266.398 148.132 269.096 143.409 263.7Z" fill="white" stroke="black" stroke-opacity="0.18" stroke-width="3"/>
<path d="M79 189.798L97.5026 61L147.817 87.5462L212.738 70.8319L265 100.655L258.832 233.714L201.702 202.908L141 225.193L79 189.798Z" fill="white" stroke="black" stroke-opacity="0.18" stroke-width="3" stroke-linecap="round"/>
<ellipse cx="169.786" cy="130.75" rx="4.42857" ry="5.53571" fill="black" fill-opacity="0.18"/>
<path d="M172.714 130.75C172.714 133.309 171.108 134.786 169.786 134.786C168.463 134.786 166.857 133.309 166.857 130.75C166.857 128.192 168.463 126.714 169.786 126.714C171.108 126.714 172.714 128.192 172.714 130.75Z" stroke="black" stroke-opacity="0.18" stroke-width="3"/>
<ellipse cx="183.071" cy="130.75" rx="4.42857" ry="5.53571" fill="black" fill-opacity="0.18"/>
<path d="M186 130.75C186 133.309 184.394 134.786 183.071 134.786C181.749 134.786 180.143 133.309 180.143 130.75C180.143 128.192 181.749 126.714 183.071 126.714C184.394 126.714 186 128.192 186 130.75Z" stroke="black" stroke-opacity="0.18" stroke-width="3"/>
<path d="M167.571 156.214C167.571 156.214 171.904 161.999 177.102 160.346C182.301 158.693 187.5 156.214 187.5 156.214" stroke="black" stroke-opacity="0.18" stroke-width="2" stroke-linecap="round"/>
</svg>
