<svg xmlns="http://www.w3.org/2000/svg">
  <defs>
    <!-- 홈 아이콘 -->
    <symbol id="home" viewBox="0 0 20 20">
      <path d="M10 4.60884L15 8.97308V16.5475H13V10.7285H7V16.5475H5V8.97308L10 4.60884ZM10 2L0 10.7285H3V18.4871H9V12.6681H11V18.4871H17V10.7285H20L10 2Z" fill="currentColor"/>
    </symbol>

    <!-- 문서 아이콘 -->
    <symbol id="document" viewBox="150 0 20 20">
      <path d="M168 4V18H154V4H168ZM168 2H154C152.9 2 152 2.9 152 4V18C152 19.1 152.9 20 154 20H168C169.1 20 170 19.1 170 18V4C170 2.9 169.1 2 168 2Z" fill="currentColor"/>
      <path d="M163 16H156V14H163V16ZM166 12H156V10H166V12ZM166 8H156V6H166V8Z" fill="currentColor"/>
    </symbol>

    <!-- 프로필 아이콘 -->
    <symbol id="profile" viewBox="227 4 20 20">
      <path d="M234 12.486C231.66 12.486 227 13.6207 227 15.8804V17.5776H241V15.8804C241 13.6207 236.34 12.486 234 12.486ZM229.34 15.638C230.18 15.0755 232.21 14.4257 234 14.4257C235.79 14.4257 237.82 15.0755 238.66 15.638H229.34ZM234 10.7888C235.93 10.7888 237.5 9.26618 237.5 7.39441C237.5 5.52263 235.93 4 234 4C232.07 4 230.5 5.52263 230.5 7.39441C230.5 9.26618 232.07 10.7888 234 10.7888Z" fill="currentColor"/>
    </symbol>

    <!-- 설정 아이콘 -->
    <symbol id="settings" viewBox="301 1 20 20">
      <path d="M311 1C305.48 1 301 5.34484 301 10.6983C301 16.0518 305.48 20.3966 311 20.3966C316.52 20.3966 321 16.0518 321 10.6983C321 5.34484 316.52 1 311 1ZM306.35 17.0022C307.66 16.0906 309.26 15.5475 311 15.5475C312.74 15.5475 314.34 16.0906 315.65 17.0022C314.34 17.9138 312.74 18.457 311 18.457C309.26 18.457 307.66 17.9138 306.35 17.0022Z" fill="currentColor"/>
      <path d="M311 4.87939C309.07 4.87939 307.5 6.40203 307.5 8.2738C307.5 10.1456 309.07 11.6682 311 11.6682C312.93 11.6682 314.5 10.1456 314.5 8.2738C314.5 6.40203 312.93 4.87939 311 4.87939Z" fill="currentColor"/>
    </symbol>
  </defs>
</svg>
