<svg width="20" height="14" viewBox="0 0 20 14" fill="none" xmlns="http://www.w3.org/2000/svg">
<path d="M7 8.48602C4.66 8.48602 0 9.62072 0 11.8804V13.5776H14V11.8804C14 9.62072 9.34 8.48602 7 8.48602ZM2.34 11.638C3.18 11.0755 5.21 10.4257 7 10.4257C8.79 10.4257 10.82 11.0755 11.66 11.638H2.34ZM7 6.78882C8.93 6.78882 10.5 5.26618 10.5 3.39441C10.5 1.52263 8.93 0 7 0C5.07 0 3.5 1.52263 3.5 3.39441C3.5 5.26618 5.07 6.78882 7 6.78882ZM7 1.93966C7.83 1.93966 8.5 2.58945 8.5 3.39441C8.5 4.19937 7.83 4.84915 7 4.84915C6.17 4.84915 5.5 4.19937 5.5 3.39441C5.5 2.58945 6.17 1.93966 7 1.93966ZM14.04 8.54421C15.2 9.35887 16 10.4451 16 11.8804V13.5776H20V11.8804C20 9.92137 16.5 8.80606 14.04 8.54421ZM13 6.78882C14.93 6.78882 16.5 5.26618 16.5 3.39441C16.5 1.52263 14.93 0 13 0C12.46 0 11.96 0.126078 11.5 0.339441C12.13 1.20259 12.5 2.25971 12.5 3.39441C12.5 4.52911 12.13 5.58623 11.5 6.44937C11.96 6.66274 12.46 6.78882 13 6.78882Z" fill="black"/>
</svg>
