<svg width="20" height="18" viewBox="0 0 20 18" fill="none" xmlns="http://www.w3.org/2000/svg">
<path d="M0 17.457V15.5173H20V17.457H0ZM4 13.5776C3.45 13.5776 2.97917 13.3877 2.5875 13.0079C2.19583 12.628 2 12.1714 2 11.638V4.84915C2 4.31575 2.19583 3.85912 2.5875 3.47927C2.97917 3.09942 3.45 2.90949 4 2.90949H7C7 2.1013 7.29167 1.41434 7.875 0.848602C8.45833 0.282867 9.16667 0 10 0C10.8333 0 11.5417 0.282867 12.125 0.848602C12.7083 1.41434 13 2.1013 13 2.90949H16C16.55 2.90949 17.0208 3.09942 17.4125 3.47927C17.8042 3.85912 18 4.31575 18 4.84915V11.638C18 12.1714 17.8042 12.628 17.4125 13.0079C17.0208 13.3877 16.55 13.5776 16 13.5776H4ZM15 11.638H16V4.84915H15V11.638ZM8.5 2.90949H11.5C11.5 2.48923 11.3583 2.14171 11.075 1.86692C10.7917 1.59214 10.4333 1.45475 10 1.45475C9.56667 1.45475 9.20833 1.59214 8.925 1.86692C8.64167 2.14171 8.5 2.48923 8.5 2.90949ZM5 11.638V4.84915H4V11.638H5ZM6.5 4.84915V11.638H13.5V4.84915H6.5Z" fill="black"/>
</svg>
