<svg width="149" height="166" viewBox="0 0 149 166" fill="none" xmlns="http://www.w3.org/2000/svg">
<path d="M64.318 152.283C67.3599 147.901 65.3317 111.75 63.3039 111.75C61.2761 111.75 46.0641 113.941 46.0641 113.941C46.0641 113.941 47.0777 134.755 46.0641 138.042C45.0505 141.328 37.9508 138.042 34.9085 143.519C31.8661 148.997 32.8802 152.283 35.9226 153.379C38.9649 154.474 61.2761 156.665 64.318 152.283Z" fill="white" stroke="black" stroke-width="3"/>
<path d="M96.7888 161.019C100.471 156.812 98.0159 122.107 95.5612 122.107C93.1065 122.107 74.692 124.21 74.692 124.21C74.692 124.21 75.919 144.192 74.692 147.347C73.465 150.502 64.8706 147.347 61.1878 152.606C57.505 157.864 58.7326 161.019 62.4154 162.071C66.0982 163.122 93.1065 165.226 96.7888 161.019Z" fill="white" stroke="black" stroke-width="3"/>
<path d="M147 103.407L132.576 3L93.3525 23.6946L42.7417 10.6647L2 33.9142L6.80803 137.643L51.3455 113.627L98.6667 131L147 103.407Z" fill="white" stroke="black" stroke-width="3" stroke-linecap="round"/>
<ellipse cx="3.45238" cy="4.31548" rx="3.45238" ry="4.31548" transform="matrix(-1 0 0 1 79.6787 53.0595)" fill="black"/>
<ellipse cx="3.45238" cy="4.31548" rx="3.45238" ry="4.31548" transform="matrix(-1 0 0 1 69.3213 53.0595)" fill="black"/>
<path d="M77.9521 77.2262C77.9521 77.2262 74.5748 81.7354 70.522 80.4471C66.4692 79.1587 62.4164 77.2262 62.4164 77.2262" stroke="black" stroke-width="2" stroke-linecap="round"/>
</svg>
