<svg width="14" height="12" viewBox="0 0 14 12" fill="none" xmlns="http://www.w3.org/2000/svg">
<path fill-rule="evenodd" clip-rule="evenodd" d="M12.2618 5.78068C12.7965 5.23957 13.0935 4.509 13.0876 3.74969C13.0816 2.99038 12.7732 2.26453 12.2301 1.73181C11.9612 1.46803 11.6427 1.25961 11.293 1.11845C10.9432 0.977286 10.569 0.906142 10.1916 0.90908C9.42952 0.915015 8.701 1.22234 8.16633 1.76345C8.02114 1.90811 7.83663 2.08566 7.6128 2.29612L6.99046 2.88002L6.36811 2.29612C6.14378 2.08516 5.95902 1.90761 5.81383 1.76345C5.27494 1.22654 4.54406 0.924905 3.78196 0.924905C3.01986 0.924905 2.28897 1.22654 1.75008 1.76345C0.640001 2.87023 0.627146 4.6596 1.70925 5.77164L6.99046 11.0335L12.2618 5.78068ZM1.10808 1.12455C1.45919 0.77464 1.87604 0.497069 2.33483 0.307692C2.79361 0.118316 3.28535 0.0208439 3.78196 0.0208439C4.27856 0.0208439 4.7703 0.118316 5.22909 0.307692C5.68788 0.497069 6.10473 0.77464 6.45583 1.12455C6.59346 1.26218 6.77167 1.43345 6.99046 1.63838C7.20824 1.43345 7.38644 1.26193 7.52508 1.1238C8.22872 0.411943 9.18736 0.00773984 10.1901 0.000109998C11.1929 -0.00751985 12.1576 0.382048 12.8721 1.08311C13.5865 1.78418 13.9922 2.73932 13.9999 3.7384C14.0075 4.73749 13.6165 5.69869 12.9129 6.41054L7.52508 11.7794C7.38327 11.9207 7.19097 12 6.99046 12C6.78994 12 6.59764 11.9207 6.45583 11.7794L1.06649 6.40979C0.375366 5.69962 -0.00766537 4.74709 0.00011629 3.75793C0.00789795 2.76876 0.405868 1.82234 1.10808 1.12305V1.12455Z" fill="black"/>
</svg>
