<svg width="18" height="21" viewBox="0 0 18 21" fill="none" xmlns="http://www.w3.org/2000/svg">
<path d="M13.5 12C11.016 12 9 14.016 9 16.5C9 18.984 11.016 21 13.5 21C15.984 21 18 18.984 18 16.5C18 14.016 15.984 12 13.5 12ZM13.5 13.8C14.247 13.8 14.85 14.403 14.85 15.15C14.85 15.897 14.247 16.5 13.5 16.5C12.753 16.5 12.15 15.897 12.15 15.15C12.15 14.403 12.753 13.8 13.5 13.8ZM13.5 19.2C12.573 19.2 11.754 18.732 11.268 18.012C11.925 17.634 12.681 17.4 13.5 17.4C14.319 17.4 15.075 17.634 15.732 18.012C15.246 18.732 14.427 19.2 13.5 19.2Z" fill="black"/>
<path d="M2 19V9H14V10C14.7 10 15.37 10.1 16 10.29V9C16 7.9 15.1 7 14 7H13V5C13 2.24 10.76 0 8 0C5.24 0 3 2.24 3 5V7H2C0.9 7 0 7.9 0 9V19C0 20.1 0.9 21 2 21H8.26C7.84 20.4 7.51 19.72 7.29 19H2ZM5 5C5 3.34 6.34 2 8 2C9.66 2 11 3.34 11 5V7H5V5Z" fill="black"/>
</svg>
