<svg width="20" height="20" viewBox="0 0 20 20" fill="none" xmlns="http://www.w3.org/2000/svg">
<path d="M10 0C4.48 0 0 4.34484 0 9.69831C0 15.0518 4.48 19.3966 10 19.3966C15.52 19.3966 20 15.0518 20 9.69831C20 4.34484 15.52 0 10 0ZM5.35 16.0022C6.66 15.0906 8.26 14.5475 10 14.5475C11.74 14.5475 13.34 15.0906 14.65 16.0022C13.34 16.9138 11.74 17.457 10 17.457C8.26 17.457 6.66 16.9138 5.35 16.0022ZM16.14 14.6638C14.45 13.3837 12.32 12.6078 10 12.6078C7.68 12.6078 5.55 13.3837 3.86 14.6638C2.7 13.3158 2 11.5895 2 9.69831C2 5.41166 5.58 1.93966 10 1.93966C14.42 1.93966 18 5.41166 18 9.69831C18 11.5895 17.3 13.3158 16.14 14.6638Z" fill="black"/>
<path d="M10 3.87939C8.07 3.87939 6.5 5.40203 6.5 7.2738C6.5 9.14558 8.07 10.6682 10 10.6682C11.93 10.6682 13.5 9.14558 13.5 7.2738C13.5 5.40203 11.93 3.87939 10 3.87939ZM10 8.72855C9.17 8.72855 8.5 8.07876 8.5 7.2738C8.5 6.46884 9.17 5.81906 10 5.81906C10.83 5.81906 11.5 6.46884 11.5 7.2738C11.5 8.07876 10.83 8.72855 10 8.72855Z" fill="black"/>
</svg>
