<svg width="26" height="26" viewBox="0 0 26 26" fill="none" xmlns="http://www.w3.org/2000/svg">
<g filter="url(#filter0_d_203_3019)">
<path d="M16.5 11.255H15.71L15.43 10.985C16.41 9.845 17 8.365 17 6.755C17 3.165 14.09 0.255005 10.5 0.255005C6.91 0.255005 4 3.165 4 6.755C4 10.345 6.91 13.255 10.5 13.255C12.11 13.255 13.59 12.665 14.73 11.685L15 11.965V12.755L20 17.745L21.49 16.255L16.5 11.255ZM10.5 11.255C8.01 11.255 6 9.245 6 6.755C6 4.26501 8.01 2.255 10.5 2.255C12.99 2.255 15 4.26501 15 6.755C15 9.245 12.99 11.255 10.5 11.255Z" fill="black"/>
</g>
<defs>
<filter id="filter0_d_203_3019" x="0" y="0.255005" width="25.49" height="25.49" filterUnits="userSpaceOnUse" color-interpolation-filters="sRGB">
<feFlood flood-opacity="0" result="BackgroundImageFix"/>
<feColorMatrix in="SourceAlpha" type="matrix" values="0 0 0 0 0 0 0 0 0 0 0 0 0 0 0 0 0 0 127 0" result="hardAlpha"/>
<feOffset dy="4"/>
<feGaussianBlur stdDeviation="2"/>
<feComposite in2="hardAlpha" operator="out"/>
<feColorMatrix type="matrix" values="0 0 0 0 0 0 0 0 0 0 0 0 0 0 0 0 0 0 0.25 0"/>
<feBlend mode="normal" in2="BackgroundImageFix" result="effect1_dropShadow_203_3019"/>
<feBlend mode="normal" in="SourceGraphic" in2="effect1_dropShadow_203_3019" result="shape"/>
</filter>
</defs>
</svg>
