<svg width="130" height="133" viewBox="0 0 130 133" fill="none" xmlns="http://www.w3.org/2000/svg">
<path d="M59.5597 8.41675C68.3426 -5.51398 89.8206 -0.0671393 90.9034 16.3655L91.7345 28.9793C92.2187 36.3282 97.3799 42.5296 104.519 44.34L116.772 47.4474C132.735 51.4956 134.192 73.6056 118.898 79.7134L107.158 84.4017C100.319 87.1332 96.016 93.9581 96.5002 101.307L97.3313 113.921C98.4141 130.353 77.8364 138.571 67.3015 125.913L59.2149 116.197C54.5036 110.536 46.6831 108.553 39.8435 111.285L28.1039 115.973C12.8101 122.081 -1.36449 105.05 7.41843 91.1188L14.1602 80.4256C18.0881 74.1956 17.5576 66.1449 12.8463 60.4841L4.7597 50.7678C-5.77514 38.11 6.04219 19.3663 22.0052 23.4145L34.2584 26.5219C41.3973 28.3324 48.89 25.3401 52.8179 19.11L59.5597 8.41675Z" fill="#0084FF" fill-opacity="0.51"/>
</svg>
