<svg width="181" height="187" viewBox="0 0 181 187" fill="none" xmlns="http://www.w3.org/2000/svg">
<path d="M102.898 2.57191C104.964 -0.705906 110.018 0.575703 110.273 4.44221L114.355 66.4039C114.469 68.1331 115.684 69.5922 117.364 70.0182L177.554 85.2826C181.31 86.2351 181.653 91.4375 178.055 92.8746L120.387 115.905C118.778 116.547 117.765 118.153 117.879 119.882L121.962 181.844C122.217 185.711 117.375 187.644 114.896 184.666L75.1729 136.938C74.0644 135.606 72.2242 135.139 70.6149 135.782L12.9474 158.812C9.34887 160.249 6.01369 156.242 8.08025 152.964L41.1975 100.436C42.1217 98.97 41.9969 97.0757 40.8883 95.7438L1.1652 48.0154C-1.31359 45.0371 1.46696 40.6268 5.22296 41.5793L65.4137 56.8437C67.0934 57.2697 68.8564 56.5656 69.7806 55.0997L102.898 2.57191Z" fill="#490085" fill-opacity="0.47"/>
</svg>
