<svg width="16" height="16" viewBox="0 0 16 16" fill="none" xmlns="http://www.w3.org/2000/svg">
<path d="M16 6.20444V14.2222C16 15.2 15.28 16 14.4 16H1.6C0.72 16 0 15.2 0 14.2222L0.00799999 3.55556C0.00799999 2.57778 0.72 1.77778 1.6 1.77778H9.68C9.632 2.06222 9.6 2.36444 9.6 2.66667C9.6 2.96889 9.632 3.27111 9.68 3.55556H1.6L8 8L10.936 5.96444C11.312 6.34667 11.752 6.64 12.24 6.83556L8 9.77778L1.6 5.33333V14.2222H14.4V7.02222C14.992 6.88889 15.536 6.59556 16 6.20444ZM11.2 2.66667C11.2 4.14222 12.272 5.33333 13.6 5.33333C14.928 5.33333 16 4.14222 16 2.66667C16 1.19111 14.928 0 13.6 0C12.272 0 11.2 1.19111 11.2 2.66667Z" fill="black"/>
</svg>
