<svg width="24" height="24" viewBox="0 0 24 24" fill="none" xmlns="http://www.w3.org/2000/svg">
<path d="M2.3842 9.14286H19.0736V11.4286H21.4578V4.57143C21.4578 3.31429 20.3849 2.28571 19.0736 2.28571H17.8815V0H15.4973V2.28571H5.96051V0H3.57631V2.28571H2.3842C1.06097 2.28571 0.011921 3.31429 0.011921 4.57143L0 20.5714C0 21.8286 1.06097 22.8571 2.3842 22.8571H10.7289V20.5714H2.3842V9.14286ZM2.3842 4.57143H19.0736V6.85714H2.3842V4.57143ZM23.6513 16.32L22.8049 17.1314L20.2777 14.7086L21.1241 13.8971C21.589 13.4514 22.34 13.4514 22.8049 13.8971L23.6513 14.7086C24.1162 15.1543 24.1162 15.8743 23.6513 16.32ZM19.4313 15.52L21.9585 17.9429L15.6404 24H13.1131V21.5771L19.4313 15.52Z" fill="black"/>
</svg>
