<svg width="36" height="37" viewBox="0 0 36 37" fill="none" xmlns="http://www.w3.org/2000/svg">
<g opacity="0.5">
<path d="M14.0625 11.8039H16.6605V23.7623C16.6605 23.9178 16.7871 24.0451 16.9418 24.0451H19.0512C19.2059 24.0451 19.3324 23.9178 19.3324 23.7623V11.8039H21.9375C22.173 11.8039 22.3031 11.5318 22.159 11.3479L18.2215 6.33555C18.1952 6.30175 18.1616 6.27442 18.1232 6.25562C18.0848 6.23682 18.0427 6.22705 18 6.22705C17.9573 6.22705 17.9152 6.23682 17.8768 6.25562C17.8384 6.27442 17.8048 6.30175 17.7785 6.33555L13.841 11.3444C13.6969 11.5318 13.827 11.8039 14.0625 11.8039ZM30.8672 22.7018H28.7578C28.6031 22.7018 28.4766 22.8291 28.4766 22.9846V28.4283H7.52344V22.9846C7.52344 22.8291 7.39687 22.7018 7.24219 22.7018H5.13281C4.97812 22.7018 4.85156 22.8291 4.85156 22.9846V29.9836C4.85156 30.6093 5.3543 31.1148 5.97656 31.1148H30.0234C30.6457 31.1148 31.1484 30.6093 31.1484 29.9836V22.9846C31.1484 22.8291 31.0219 22.7018 30.8672 22.7018Z" fill="black"/>
</g>
</svg>
