<svg width="39" height="39" viewBox="0 0 39 39" fill="none" xmlns="http://www.w3.org/2000/svg">
<rect width="39" height="39" rx="19.5" fill="#490085"/>
<path opacity="0.9" d="M23.604 19.0789L24.612 18.0179C24.964 17.6474 25.412 17.4453 25.9 17.3947V16.5526L21.1 11.5H13.1C12.212 11.5 11.5 12.2495 11.5 13.1842V24.9737C11.5 25.4204 11.6686 25.8488 11.9686 26.1646C12.2687 26.4805 12.6757 26.6579 13.1 26.6579H17.9V25.0832L18.004 24.9737H13.1V13.1842H18.7V19.0789H23.604ZM20.3 12.7632L24.7 17.3947H20.3V12.7632ZM24.404 20.62L26.036 22.3379L21.132 27.5H19.5V25.7821L24.404 20.62ZM27.38 20.9232L26.596 21.7484L24.964 20.0305L25.748 19.2053C25.9 19.0368 26.164 19.0368 26.324 19.2053L27.38 20.3168C27.54 20.4853 27.54 20.7632 27.38 20.9232Z" fill="white"/>
</svg>
